<svg width="100" height="110" xmlns="http://www.w3.org/2000/svg">
  <!-- Top Left Curve -->
  <rect width="10" height="10" x="20" y="30" fill="red"/>
  <rect width="10" height="10" x="30" y="20" fill="red"/>
  <rect width="10" height="10" x="40" y="20" fill="red"/>

  <!-- Top Right Curve -->
  <rect width="10" height="10" x="50" y="20" fill="red"/>
  <rect width="10" height="10" x="60" y="20" fill="red"/>
  <rect width="10" height="10" x="70" y="30" fill="red"/>

  <!-- Middle Row -->
    <rect width="10" height="10" x="10" y="40" fill="red"/>
    <rect width="10" height="10" x="20" y="40" fill="red"/>
    <rect width="10" height="10" x="30" y="40" fill="red"/>
    <rect width="10" height="10" x="40" y="40" fill="red"/>
    <rect width="10" height="10" x="50" y="40" fill="red"/>
    <rect width="10" height="10" x="60" y="40" fill="red"/>
    <rect width="10" height="10" x="70" y="40" fill="red"/>
    <rect width="10" height="10" x="80" y="40" fill="red"/>

  <!-- Downward Slope -->
  <rect width="10" height="10" x="20" y="50" fill="red"/>
  <rect width="10" height="10" x="30" y="50" fill="red"/>
  <rect width="10" height="10" x="40" y="50" fill="red"/>
  <rect width="10" height="10" x="50" y="50" fill="red"/>
  <rect width="10" height="10" x="60" y="50" fill="red"/>
  <rect width="10" height="10" x="70" y="50" fill="red"/>

    <rect width="10" height="10" x="30" y="60" fill="red"/>
  <rect width="10" height="10" x="40" y="60" fill="red"/>
  <rect width="10" height="10" x="50" y="60" fill="red"/>
  <rect width="10" height="10" x="60" y="60" fill="red"/>

  <rect width="10" height="10" x="40" y="70" fill="red"/>
  <rect width="10" height="10" x="50" y="70" fill="red"/>
</svg>